<svg width="239" height="210" viewBox="0 0 239 210" fill="none" xmlns="http://www.w3.org/2000/svg">
<path d="M175.787 81.9073C199.48 64.043 204.041 30.3416 186.176 6.77601C184.529 4.62217 182.756 2.59503 180.855 0.69458C197.452 3.9887 213.036 13.1109 224.059 27.681C247.751 59.1018 241.543 103.826 210.249 127.518C178.828 151.21 134.104 145.002 110.412 113.708C99.3891 99.138 94.828 81.6539 96.2217 64.8032C97.4887 67.0838 98.8824 69.3643 100.529 71.5181C118.52 95.2104 152.222 99.7715 175.787 81.9073Z" fill="#FDA75D"/>
<path d="M210.249 127.518C181.109 149.563 140.566 145.762 115.86 120.043C108.258 106.993 105.09 92.2964 106.357 78.1064C107.624 80.3869 109.018 82.6675 110.665 84.8213C128.529 108.514 162.231 113.075 185.796 95.2105C209.489 77.3462 214.05 43.6448 196.186 20.0792C194.538 17.9253 192.765 15.8982 190.864 13.9977C204.928 16.7851 218.231 23.7534 228.62 34.6493C246.864 65.4366 239.389 105.473 210.249 127.518Z" fill="#FFB379"/>
<path d="M221.018 94.0702C218.104 101.038 213.796 107.5 208.222 112.948C206.575 114.595 204.674 116.115 202.9 117.509C197.072 121.943 190.484 125.111 183.643 127.011C190.484 124.984 197.072 121.817 202.774 117.509C210.756 111.301 216.964 103.192 221.018 94.0702Z" fill="#FFB379"/>
<path d="M168.692 129.292C173.127 129.165 177.688 128.532 181.995 127.518C177.688 128.532 173.253 129.165 168.692 129.292Z" fill="#FFB379"/>
<path d="M16.6561 123.971C15.8959 120.803 15.5158 117.509 15.5158 114.215C15.5158 91.7896 33.7602 73.5452 56.1855 73.5452C72.276 73.5452 86.086 82.7941 92.6742 96.3507C94.0679 96.224 95.4615 96.0973 96.8552 96.0973C119.281 96.0973 137.525 114.342 137.525 136.767C137.525 159.192 119.281 177.437 96.8552 177.437C80.7647 177.437 41.8688 177.437 28.3122 177.437C12.8552 177.437 0.312218 164.894 0.312218 149.437C0.185521 138.161 6.90045 128.405 16.6561 123.971Z" fill="#5199AF"/>
<path d="M19.19 149.437C19.19 138.161 25.905 128.405 35.6606 123.971C34.9004 120.803 34.5204 117.509 34.5204 114.215C34.5204 95.0838 47.8235 78.9932 65.6878 74.6855C77.5973 77.5996 87.3529 85.5814 92.6742 96.3507C94.0679 96.224 95.4615 96.0973 96.8552 96.0973C119.281 96.0973 137.525 114.342 137.525 136.767C137.525 159.192 119.281 177.437 96.8552 177.437C85.9592 177.437 64.2941 177.437 47.3167 177.437C31.733 177.437 19.19 164.894 19.19 149.437Z" fill="#65A5BF"/>
<path d="M92.8009 155.772C92.0407 152.604 91.6606 149.31 91.6606 146.016C91.6606 123.591 109.905 105.346 132.33 105.346C148.421 105.346 162.231 114.595 168.819 128.152C170.213 128.025 171.606 127.898 173 127.898C195.425 127.898 213.67 146.143 213.67 168.568C213.67 190.993 195.425 209.238 173 209.238C156.91 209.238 118.014 209.238 104.457 209.238C89 209.238 76.457 196.695 76.457 181.238C76.3303 169.835 83.1719 160.079 92.8009 155.772Z" fill="#62A6C4"/>
<path d="M95.4615 181.238C95.4615 169.962 102.176 160.206 111.932 155.772C111.172 152.604 110.792 149.31 110.792 146.016C110.792 126.885 124.095 110.794 141.959 106.486C153.869 109.4 163.624 117.382 168.946 128.152C170.339 128.025 171.733 127.898 173.127 127.898C195.552 127.898 213.796 146.143 213.796 168.568C213.796 190.993 195.552 209.238 173.127 209.238C162.231 209.238 140.566 209.238 123.588 209.238C108.005 209.111 95.4615 196.695 95.4615 181.238Z" fill="#6FADCD"/>
</svg>
