<svg width="215" height="137" viewBox="0 0 215 137" fill="none" xmlns="http://www.w3.org/2000/svg">
<path d="M17.2669 51.2964C16.5067 48.1289 16.1266 44.8348 16.1266 41.5407C16.1266 19.1154 34.371 0.871033 56.7963 0.871033C72.8868 0.871033 86.6968 10.1199 93.285 23.6765C94.6787 23.5498 96.0723 23.4231 97.466 23.4231C119.891 23.4231 138.136 41.6674 138.136 64.0927C138.136 86.5181 119.891 104.762 97.466 104.762C81.3755 104.762 42.4796 104.762 28.923 104.762C13.466 104.762 0.922995 92.2194 0.922995 76.7624C0.796299 65.4864 7.63796 55.7307 17.2669 51.2964Z" fill="#5199AF"/>
<path d="M19.9275 76.8891C19.9275 65.6131 26.6425 55.8574 36.3981 51.4231C35.6379 48.2556 35.2579 44.9615 35.2579 41.6674C35.2579 22.5362 48.561 6.44569 66.4253 2.138C78.3348 5.05203 88.0904 13.0339 93.4117 23.8032C94.8053 23.6765 96.199 23.5498 97.5927 23.5498C120.018 23.5498 138.262 41.7941 138.262 64.2194C138.262 86.6448 120.018 104.889 97.5927 104.889C86.6967 104.889 65.0316 104.889 48.0542 104.889C32.4705 104.762 19.9275 92.2194 19.9275 76.8891Z" fill="#65A5BF"/>
<path d="M93.5384 83.0973C92.7782 79.9298 92.3981 76.6357 92.3981 73.3416C92.3981 50.9163 110.642 32.6719 133.068 32.6719C149.158 32.6719 162.968 41.9208 169.556 55.4774C170.95 55.3507 172.344 55.224 173.737 55.224C196.163 55.224 214.407 73.4683 214.407 95.8936C214.407 118.319 196.163 136.563 173.737 136.563C157.647 136.563 118.751 136.563 105.194 136.563C89.7374 136.563 77.1945 124.02 77.1945 108.563C77.0678 97.2873 83.7827 87.5316 93.5384 83.0973Z" fill="#62A6C4"/>
<path d="M96.0724 108.563C96.0724 97.2873 102.787 87.5316 112.543 83.0973C111.783 79.9298 111.403 76.6357 111.403 73.3416C111.403 54.2104 124.706 38.1199 142.57 33.8122C154.48 36.7262 164.235 44.7081 169.557 55.4774C170.95 55.3507 172.344 55.224 173.737 55.224C196.163 55.224 214.407 73.4683 214.407 95.8936C214.407 118.319 196.163 136.563 173.737 136.563C162.841 136.563 141.176 136.563 124.199 136.563C108.615 136.563 96.0724 124.02 96.0724 108.563Z" fill="#6FADCD"/>
</svg>
