<svg width="215" height="204" viewBox="0 0 215 204" fill="none" xmlns="http://www.w3.org/2000/svg">
<path d="M138.769 135.921H160.308L178.679 162.907H145.611L154.353 203.704L117.737 149.224H148.018L138.769 135.921Z" fill="#FDA75D"/>
<path d="M133.701 135.921H155.24L173.611 162.907H140.543L153.719 203.704L112.67 149.224H142.95L133.701 135.921Z" fill="#FDA75D"/>
<path d="M140.543 162.907L144.09 174.057L125.339 149.224H142.95H155.62L146.371 135.921H155.24L173.611 162.907H153.213H140.543Z" fill="#FFB379"/>
<path d="M17.2669 50.6538C16.5067 47.4864 16.1266 44.1924 16.1266 40.8982C16.1266 18.4729 34.371 0.228516 56.7963 0.228516C72.8868 0.228516 86.6968 9.47738 93.285 23.0339C94.6787 22.9072 96.0723 22.7805 97.466 22.7805C119.891 22.7805 138.136 41.0249 138.136 63.4503C138.136 85.8756 119.891 104.12 97.466 104.12C81.3755 104.12 42.4796 104.12 28.923 104.12C13.466 104.12 0.922995 91.577 0.922995 76.1199C0.796299 64.8439 7.63796 55.0882 17.2669 50.6538Z" fill="#5199AF"/>
<path d="M19.9275 76.1199C19.9275 64.8439 26.6425 55.0882 36.3981 50.6538C35.6379 47.4864 35.2579 44.1923 35.2579 40.8982C35.2579 21.767 48.561 5.6765 66.4253 1.3688C78.3348 4.28283 88.0904 12.2647 93.4117 23.0339C94.8053 22.9072 96.199 22.7805 97.5927 22.7805C120.018 22.7805 138.262 41.0249 138.262 63.4502C138.262 85.8756 120.018 104.12 97.5927 104.12C86.6967 104.12 65.0316 104.12 48.0542 104.12C32.4705 104.12 19.9275 91.5769 19.9275 76.1199Z" fill="#65A5BF"/>
<path d="M93.5384 82.4548C92.7782 79.2873 92.3981 75.9932 92.3981 72.6991C92.3981 50.2738 110.642 32.0294 133.068 32.0294C149.158 32.0294 162.968 41.2783 169.556 54.8349C170.95 54.7082 172.344 54.5815 173.737 54.5815C196.163 54.5815 214.407 72.8258 214.407 95.2511C214.407 117.676 196.163 135.921 173.737 135.921C157.647 135.921 118.751 135.921 105.194 135.921C89.7374 135.921 77.1945 123.378 77.1945 107.921C77.0678 96.6448 83.7827 86.8892 93.5384 82.4548Z" fill="#62A6C4"/>
<path d="M96.0724 107.921C96.0724 96.6448 102.787 86.8892 112.543 82.4548C111.783 79.2874 111.403 75.9932 111.403 72.6991C111.403 53.5679 124.706 37.4774 142.57 33.1697C154.48 36.0837 164.235 44.0657 169.557 54.8349C170.95 54.7082 172.344 54.5815 173.737 54.5815C196.163 54.5815 214.407 72.8258 214.407 95.2511C214.407 117.676 196.163 135.921 173.737 135.921C162.841 135.921 141.176 135.921 124.199 135.921C108.615 135.921 96.0724 123.378 96.0724 107.921Z" fill="#6FADCD"/>
</svg>
