<svg width="127" height="143" viewBox="0 0 127 143" fill="none" xmlns="http://www.w3.org/2000/svg">
<path d="M68.8235 73.3597C72.8778 43.9661 52.3529 16.8529 23.086 12.7986C20.4253 12.4186 17.7647 12.2918 15.1041 12.2918C29.1674 2.78957 46.6516 -1.77149 64.7692 0.762451C103.792 6.21041 131.032 42.1923 125.584 81.2149C120.136 120.238 84.1538 147.477 45.1312 142.029C27.0136 139.495 11.4299 130.373 0.533936 117.45C3.06787 118.21 5.7285 118.717 8.38913 119.097C37.5294 123.152 64.6425 102.627 68.8235 73.3597Z" fill="#FDA75D"/>
<path d="M125.33 81.215C120.262 117.45 88.9683 143.423 53.2398 142.663C38.6697 138.862 26.1267 130.627 16.7512 119.731C19.2851 120.491 21.9457 120.998 24.6064 121.378C54 125.432 81.1131 104.907 85.1674 75.6403C89.2217 46.2466 68.6969 19.1335 39.4299 15.0792C36.7693 14.6991 34.1086 14.5724 31.448 14.5724C43.3575 6.59049 57.6742 2.15613 72.7512 2.40953C107.339 11.405 130.398 44.9797 125.33 81.215Z" fill="#FFB379"/>
<path d="M109.24 49.9208C112.154 56.8892 113.674 64.6177 113.547 72.3462C113.547 74.7534 113.294 77.0339 113.041 79.4412C112.027 86.6629 109.62 93.5045 106.199 99.7127C109.62 93.5045 111.9 86.5362 113.041 79.4412C114.181 69.3054 112.914 59.1697 109.24 49.9208Z" fill="#FFB379"/>
<path d="M97.2036 111.749C100.371 108.455 103.032 104.907 105.312 101.106C103.032 104.907 100.371 108.581 97.2036 111.749Z" fill="#FFB379"/>
</svg>
