<svg width="138" height="138" viewBox="0 0 138 138" fill="none" xmlns="http://www.w3.org/2000/svg">
<path d="M69.3756 137.695C107.161 137.695 137.792 107.063 137.792 69.2782C137.792 31.493 107.161 0.861938 69.3756 0.861938C31.5903 0.861938 0.95929 31.493 0.95929 69.2782C0.95929 107.063 31.5903 137.695 69.3756 137.695Z" fill="#FDA75D"/>
<path d="M77.3575 1.36871C111.312 5.29631 137.792 34.1832 137.792 69.2783C137.792 104.373 111.439 133.26 77.3575 137.188C43.4027 133.26 16.9231 104.373 16.9231 69.2783C16.9231 34.1832 43.276 5.29631 77.3575 1.36871Z" fill="#FFB379"/>
<path d="M115.113 39.1244C118.787 45.4593 121.195 52.5542 122.081 59.9027C122.335 62.1832 122.462 64.4638 122.462 66.7443C122.462 73.7126 121.068 80.5542 118.661 86.8891C121.068 80.4275 122.335 73.5859 122.462 66.7443C122.462 56.862 119.801 47.4864 115.113 39.1244Z" fill="#FFB379"/>
<path d="M111.819 99.4321C114.353 95.8846 116.507 92.2103 118.154 88.156C116.507 92.2103 114.353 96.0113 111.819 99.4321C111.819 99.4321 111.819 99.5588 111.819 99.4321Z" fill="#FFB379"/>
</svg>
