<svg width="238" height="205" viewBox="0 0 238 205" fill="none" xmlns="http://www.w3.org/2000/svg">
<path d="M168.887 136.866C206.672 136.866 237.303 106.235 237.303 68.4502C237.303 30.6649 206.672 0.0339012 168.887 0.0339012C131.101 0.0339012 100.47 30.6649 100.47 68.4502C100.47 106.235 131.101 136.866 168.887 136.866Z" fill="#FDA75D"/>
<path d="M176.869 0.413971C210.823 4.34157 237.303 33.2285 237.303 68.3235C237.303 103.419 210.95 132.305 176.869 136.233C142.914 132.305 116.434 103.419 116.434 68.3235C116.434 33.3552 142.914 4.46827 176.869 0.413971Z" fill="#FFB379"/>
<path d="M214.624 38.2964C214.751 38.2964 214.751 38.1697 214.624 38.2964C218.298 44.6312 220.706 51.7262 221.593 59.0746C221.846 61.3551 221.973 63.6357 221.973 65.9163C221.973 72.8846 220.579 79.7262 218.172 86.0611C220.579 79.5995 221.846 72.7579 221.973 65.9163C221.973 56.0339 219.312 46.5317 214.624 38.2964Z" fill="#FFB379"/>
<path d="M211.457 98.604C213.991 95.0565 216.145 91.3823 217.792 87.328C216.018 91.2557 213.991 95.0565 211.457 98.604Z" fill="#FFB379"/>
<path d="M16.5971 119.382C15.837 116.215 15.4568 112.921 15.4568 109.627C15.4568 87.2013 33.7012 68.957 56.1266 68.957C72.2171 68.957 86.027 78.2059 92.6152 91.7624C94.0089 91.6357 95.4026 91.509 96.7962 91.509C119.222 91.509 137.466 109.753 137.466 132.179C137.466 154.604 119.222 172.848 96.7962 172.848C80.7057 172.848 41.8098 172.848 28.2533 172.848C12.7963 172.848 0.253228 160.305 0.253228 144.848C0.126531 133.572 6.84149 123.817 16.5971 119.382Z" fill="#5199AF"/>
<path d="M19.1311 144.848C19.1311 133.572 25.846 123.817 35.6017 119.382C34.8415 116.215 34.4614 112.921 34.4614 109.627C34.4614 90.4954 47.7646 74.4049 65.6289 70.0972C77.5384 73.0113 87.294 80.9932 92.6153 91.7624C94.0089 91.6357 95.4026 91.509 96.7962 91.509C119.222 91.509 137.466 109.753 137.466 132.179C137.466 154.604 119.222 172.848 96.7962 172.848C85.9003 172.848 64.2352 172.848 47.2578 172.848C31.6741 172.848 19.1311 160.305 19.1311 144.848Z" fill="#65A5BF"/>
<path d="M92.7419 151.183C91.9817 148.016 91.6017 144.722 91.6017 141.428C91.6017 119.002 109.846 100.758 132.271 100.758C148.362 100.758 162.172 110.007 168.76 123.563C170.154 123.437 171.547 123.31 172.941 123.31C195.366 123.31 213.611 141.554 213.611 163.98C213.611 186.405 195.366 204.649 172.941 204.649C156.85 204.649 117.955 204.649 104.398 204.649C88.941 204.649 76.3981 192.106 76.3981 176.649C76.3981 165.373 83.113 155.618 92.7419 151.183Z" fill="#62A6C4"/>
<path d="M95.4026 176.649C95.4026 165.373 102.118 155.618 111.873 151.183C111.113 148.016 110.733 144.722 110.733 141.428C110.733 122.296 124.036 106.206 141.9 101.898C153.81 104.812 163.566 112.794 168.887 123.563C170.28 123.437 171.674 123.31 173.068 123.31C195.493 123.31 213.737 141.554 213.737 163.98C213.737 186.405 195.493 204.649 173.068 204.649C162.172 204.649 140.507 204.649 123.529 204.649C107.946 204.649 95.4026 192.106 95.4026 176.649Z" fill="#6FADCD"/>
</svg>
