<svg width="214" height="229" viewBox="0 0 214 229" fill="none" xmlns="http://www.w3.org/2000/svg">
<path d="M138.172 136.504H159.71L178.081 163.491H145.013L153.756 204.287L117.14 149.808H147.421L138.172 136.504Z" fill="#FDA75D"/>
<path d="M133.104 136.504H154.642L173.014 163.491H139.946L153.122 204.287L112.072 149.808H142.353L133.104 136.504Z" fill="#FDA75D"/>
<path d="M139.946 163.491L143.62 174.767L124.742 149.808H142.353H155.023L145.774 136.504H154.642L173.014 163.491H152.615H139.946Z" fill="#FFB379"/>
<path d="M16.6696 51.3642C15.9094 48.1968 15.5293 44.9027 15.5293 41.6086C15.5293 19.1832 33.7737 0.938843 56.199 0.938843C72.2895 0.938843 86.0995 10.1877 92.6877 23.7443C94.0814 23.6176 95.475 23.4909 96.8687 23.4909C119.294 23.4909 137.538 41.7353 137.538 64.1606C137.538 86.5859 119.294 104.83 96.8687 104.83C80.7782 104.83 41.8823 104.83 28.3257 104.83C12.8687 104.83 0.325684 92.2873 0.325684 76.8303C0.325684 65.4276 7.04065 55.6719 16.6696 51.3642Z" fill="#5199AF"/>
<path d="M19.3302 76.8303C19.3302 65.5542 26.0452 55.7986 35.8008 51.3642C35.0406 48.1968 34.6606 44.9027 34.6606 41.6086C34.6606 22.4773 47.9637 6.38682 65.828 2.07913C77.7375 4.99316 87.4931 12.975 92.8144 23.7443C94.2081 23.6176 95.6018 23.4909 96.9954 23.4909C119.421 23.4909 137.665 41.7352 137.665 64.1606C137.665 86.5859 119.421 104.83 96.9954 104.83C86.0995 104.83 64.4343 104.83 47.4569 104.83C31.8732 104.704 19.3302 92.1606 19.3302 76.8303Z" fill="#65A5BF"/>
<path d="M92.9412 83.0384C92.181 79.871 91.8009 76.5769 91.8009 73.2828C91.8009 50.8574 110.045 32.613 132.471 32.613C148.561 32.613 162.371 41.8619 168.959 55.4185C170.353 55.2918 171.747 55.1651 173.14 55.1651C195.566 55.1651 213.81 73.4094 213.81 95.8348C213.81 118.26 195.566 136.504 173.14 136.504C157.05 136.504 118.154 136.504 104.597 136.504C89.1403 136.504 76.5972 123.961 76.5972 108.504C76.4705 97.2284 83.3122 87.4728 92.9412 83.0384Z" fill="#62A6C4"/>
<path d="M95.6017 108.504C95.6017 97.2285 102.317 87.4728 112.072 83.0385C111.312 79.871 110.932 76.5769 110.932 73.2828C110.932 54.1516 124.235 38.061 142.099 33.7534C154.009 36.6674 163.765 44.6493 169.086 55.4185C170.48 55.2918 171.873 55.1652 173.267 55.1652C195.692 55.1652 213.937 73.4095 213.937 95.8348C213.937 118.26 195.692 136.504 173.267 136.504C162.371 136.504 140.706 136.504 123.728 136.504C108.018 136.504 95.6017 123.961 95.6017 108.504Z" fill="#6FADCD"/>
<path d="M85.466 213.79C85.466 205.428 100.67 179.455 100.67 179.455C100.67 179.455 115.873 205.301 115.873 213.79C115.873 222.151 109.032 228.993 100.67 228.993C92.3076 228.993 85.466 222.151 85.466 213.79Z" fill="#9AC6CE"/>
<path d="M107.131 190.984C111.312 198.966 116 209.102 116 213.79C116 219.998 112.326 225.192 107.131 227.599C101.937 225.192 98.2624 219.871 98.2624 213.79C98.1357 209.102 102.95 199.093 107.131 190.984Z" fill="#AED2DC"/>
<path d="M36.561 165.138C36.561 156.776 51.7647 130.803 51.7647 130.803C51.7647 130.803 66.9683 156.649 66.9683 165.138C66.9683 173.5 60.1267 180.342 51.7647 180.342C43.4027 180.342 36.561 173.5 36.561 165.138Z" fill="#9AC6CE"/>
<path d="M58.0995 142.333C62.2805 150.314 66.9683 160.45 66.9683 165.138C66.9683 171.346 63.2941 176.541 58.0995 178.948C52.9049 176.541 49.2307 171.219 49.2307 165.138C49.2307 160.45 53.9185 150.441 58.0995 142.333Z" fill="#AED2DC"/>
</svg>
