<svg width="239" height="296" viewBox="0 0 239 296" fill="none" xmlns="http://www.w3.org/2000/svg">
<path d="M176.14 81.8891C199.833 64.0248 204.394 30.3235 186.529 6.75788C184.882 4.60404 183.109 2.5769 181.208 0.676452C197.805 3.97057 213.389 13.0927 224.412 27.6629C248.104 59.0837 241.896 103.808 210.602 127.5C179.181 151.192 134.457 144.984 110.765 113.69C99.7421 99.1199 95.181 81.6357 96.5746 64.785C97.8416 67.0656 99.2352 69.3461 100.882 71.4999C118.747 95.0655 152.448 99.7533 176.14 81.8891Z" fill="#FDA75D"/>
<path d="M210.602 127.5C181.461 149.545 140.918 145.744 116.213 120.025C108.611 106.975 105.443 92.2782 106.71 78.0882C107.977 80.3687 109.371 82.6493 111.018 84.8031C128.882 108.495 162.584 113.057 186.149 95.1923C209.842 77.328 214.403 43.6267 196.538 20.0611C194.891 17.9072 193.118 15.8801 191.217 13.9796C205.28 16.7669 218.584 23.7353 228.973 34.6312C247.09 65.2918 239.742 105.455 210.602 127.5Z" fill="#FFB379"/>
<path d="M221.244 93.9253C218.33 100.894 214.023 107.355 208.448 112.803C206.801 114.45 204.9 115.971 203 117.364C197.172 121.799 190.584 124.966 183.742 126.866C190.584 124.839 197.172 121.672 202.873 117.364C211.109 111.156 217.317 103.047 221.244 93.9253Z" fill="#FFB379"/>
<path d="M169.045 129.147C173.48 129.02 178.041 128.387 182.348 127.373C178.041 128.514 173.48 129.147 169.045 129.147Z" fill="#FFB379"/>
<path d="M16.8823 123.952C16.1221 120.785 15.742 117.491 15.742 114.197C15.742 91.7714 33.9863 73.5271 56.4117 73.5271C72.5022 73.5271 86.3122 82.776 92.9004 96.3326C94.2941 96.2059 95.6877 96.0791 97.0814 96.0791C119.507 96.0791 137.751 114.323 137.751 136.749C137.751 159.174 119.507 177.419 97.0814 177.419C80.9909 177.419 42.0949 177.419 28.5384 177.419C13.0814 177.419 0.538414 164.875 0.538414 149.418C0.411717 138.016 7.12664 128.26 16.8823 123.952Z" fill="#5199AF"/>
<path d="M19.4163 149.418C19.4163 138.142 26.1312 128.387 35.8868 123.952C35.1267 120.785 34.7466 117.491 34.7466 114.197C34.7466 95.0656 48.0497 78.975 65.914 74.6674C77.8235 77.5814 87.5792 85.5633 92.9004 96.3326C94.2941 96.2059 95.6877 96.0791 97.0814 96.0791C119.507 96.0791 137.751 114.323 137.751 136.749C137.751 159.174 119.507 177.419 97.0814 177.419C86.1855 177.419 64.5203 177.419 47.5429 177.419C31.9592 177.292 19.4163 164.749 19.4163 149.418Z" fill="#65A5BF"/>
<path d="M93.0271 155.627C92.2669 152.459 91.8868 149.165 91.8868 145.871C91.8868 123.446 110.131 105.201 132.557 105.201C148.647 105.201 162.457 114.45 169.045 128.007C170.439 127.88 171.833 127.753 173.226 127.753C195.652 127.753 213.896 145.998 213.896 168.423C213.896 190.848 195.652 209.093 173.226 209.093C157.136 209.093 118.24 209.093 104.683 209.093C89.2262 209.093 76.6832 196.55 76.6832 181.093C76.6832 169.817 83.3982 160.061 93.0271 155.627Z" fill="#62A6C4"/>
<path d="M95.6877 181.093C95.6877 169.817 102.403 160.061 112.158 155.627C111.398 152.459 111.018 149.165 111.018 145.871C111.018 126.74 124.321 110.649 142.185 106.342C154.095 109.256 163.851 117.238 169.172 128.007C170.566 127.88 171.959 127.753 173.353 127.753C195.778 127.753 214.023 145.998 214.023 168.423C214.023 190.848 195.778 209.093 173.353 209.093C162.457 209.093 140.792 209.093 123.814 209.093C108.231 209.093 95.6877 196.55 95.6877 181.093Z" fill="#6FADCD"/>
<path d="M151.308 258.124C151.308 249.762 166.511 223.79 166.511 223.79C166.511 223.79 181.715 249.636 181.715 258.124C181.715 266.486 174.873 273.328 166.511 273.328C158.149 273.328 151.308 266.613 151.308 258.124Z" fill="#9AC6CE"/>
<path d="M172.973 235.319C177.154 243.301 181.842 253.437 181.842 258.124C181.842 264.333 178.167 269.527 172.973 271.934C167.778 269.527 164.104 264.206 164.104 258.124C164.104 253.437 168.792 243.428 172.973 235.319Z" fill="#AED2DC"/>
<path d="M102.276 280.676C102.276 272.314 117.48 246.342 117.48 246.342C117.48 246.342 132.683 272.188 132.683 280.676C132.683 289.038 125.842 295.88 117.48 295.88C109.118 295.88 102.276 289.165 102.276 280.676Z" fill="#9AC6CE"/>
<path d="M123.941 257.871C128.122 265.853 132.81 275.989 132.81 280.676C132.81 286.885 129.136 292.079 123.941 294.486C118.747 292.079 115.072 286.758 115.072 280.676C115.072 275.989 119.76 265.98 123.941 257.871Z" fill="#AED2DC"/>
</svg>
