<svg width="214" height="220" viewBox="0 0 214 220" fill="none" xmlns="http://www.w3.org/2000/svg">
<path d="M16.6696 50.4864C15.9094 47.319 15.5293 44.0249 15.5293 40.7308C15.5293 18.3054 33.7737 0.0610962 56.199 0.0610962C72.2895 0.0610962 86.0995 9.30996 92.6877 22.8665C94.0814 22.7398 95.475 22.6131 96.8687 22.6131C119.294 22.6131 137.538 40.8575 137.538 63.2828C137.538 85.7081 119.294 103.952 96.8687 103.952C80.7782 103.952 41.8823 103.952 28.3257 103.952C12.8687 103.952 0.325684 91.4095 0.325684 75.9525C0.325684 64.5498 7.04065 54.7941 16.6696 50.4864Z" fill="#5199AF"/>
<path d="M19.3302 75.9525C19.3302 64.6765 26.0452 54.9208 35.8008 50.4864C35.0406 47.319 34.6606 44.0249 34.6606 40.7308C34.6606 21.5996 47.9637 5.50905 65.828 1.20135C77.7375 4.11538 87.4931 12.0973 92.8144 22.8665C94.2081 22.7398 95.6018 22.6131 96.9954 22.6131C119.421 22.6131 137.665 40.8575 137.665 63.2828C137.665 85.7081 119.421 103.952 96.9954 103.952C86.0995 103.952 64.4343 103.952 47.4569 103.952C31.8732 103.826 19.3302 91.4095 19.3302 75.9525Z" fill="#65A5BF"/>
<path d="M92.9411 82.1606C92.1809 78.9932 91.8008 75.6991 91.8008 72.405C91.8008 49.9796 110.045 31.7353 132.471 31.7353C148.561 31.7353 162.371 40.9842 168.959 54.5407C170.353 54.414 171.747 54.2873 173.14 54.2873C195.566 54.2873 213.81 72.5317 213.81 94.957C213.81 117.382 195.439 135.627 173.014 135.627C156.923 135.627 118.027 135.627 104.471 135.627C89.0135 135.627 76.4705 123.084 76.4705 107.627C76.4705 96.3507 83.1855 86.595 92.9411 82.1606Z" fill="#62A6C4"/>
<path d="M95.6017 107.627C95.6017 96.3507 102.317 86.595 112.072 82.1606C111.312 78.9932 110.932 75.6991 110.932 72.405C110.932 53.2738 124.235 37.1832 142.099 32.8755C154.009 35.7896 163.765 43.7715 169.086 54.5407C170.48 54.414 171.873 54.2873 173.267 54.2873C195.692 54.2873 213.937 72.5317 213.937 94.957C213.937 117.382 195.439 135.627 173.014 135.627C162.118 135.627 140.452 135.627 123.475 135.627C108.018 135.627 95.6017 123.084 95.6017 107.627Z" fill="#6FADCD"/>
<path d="M156.163 181.618C156.163 173.256 171.366 147.283 171.366 147.283C171.366 147.283 186.57 173.129 186.57 181.618C186.57 189.98 179.728 196.821 171.366 196.821C162.878 196.948 156.163 190.106 156.163 181.618Z" fill="#9AC6CE"/>
<path d="M177.701 158.812C181.882 166.794 186.57 176.93 186.57 181.618C186.57 187.826 182.896 193.02 177.701 195.428C172.507 193.02 168.832 187.699 168.832 181.618C168.832 176.93 173.52 166.921 177.701 158.812Z" fill="#AED2DC"/>
<path d="M107.004 204.17C107.004 195.808 122.208 169.835 122.208 169.835C122.208 169.835 137.412 195.681 137.412 204.17C137.412 212.532 130.57 219.373 122.208 219.373C113.846 219.373 107.004 212.658 107.004 204.17Z" fill="#9AC6CE"/>
<path d="M128.67 181.364C132.851 189.346 137.538 199.482 137.538 204.17C137.538 210.378 133.864 215.572 128.67 217.98C123.475 215.572 119.801 210.251 119.801 204.17C119.801 199.482 124.489 189.473 128.67 181.364Z" fill="#AED2DC"/>
</svg>
