<svg width="290" height="308" viewBox="0 0 290 308" fill="none" xmlns="http://www.w3.org/2000/svg">
<path d="M16.4343 134.64C15.6742 131.473 15.294 128.179 15.294 124.885C15.294 102.459 33.5384 84.2149 55.9637 84.2149C72.0542 84.2149 85.8642 93.4638 92.4524 107.02C93.8461 106.894 95.2398 106.767 96.6334 106.767C119.059 106.767 137.303 125.011 137.303 147.437C137.303 169.862 119.059 188.106 96.6334 188.106C80.5429 188.106 41.647 188.106 28.0904 188.106C12.6334 188.106 0.0904277 175.563 0.0904277 160.106C-0.0362691 148.83 6.67869 139.075 16.4343 134.64Z" fill="#5199AF"/>
<path d="M18.9683 160.106C18.9683 148.83 25.6832 139.075 35.4389 134.64C34.6787 131.473 34.2986 128.179 34.2986 124.885C34.2986 105.753 47.6017 89.6628 65.466 85.3551C77.3755 88.2692 87.1312 96.2511 92.4525 107.02C93.8461 106.894 95.2398 106.767 96.6334 106.767C119.059 106.767 137.303 125.011 137.303 147.437C137.303 169.862 119.059 188.106 96.6334 188.106C85.7375 188.106 64.0723 188.106 47.0949 188.106C31.5112 188.106 18.9683 175.563 18.9683 160.106Z" fill="#65A5BF"/>
<path d="M176.072 165.681C206.091 165.681 230.425 141.346 230.425 111.328C230.425 81.3097 206.091 56.9751 176.072 56.9751C146.054 56.9751 121.719 81.3097 121.719 111.328C121.719 141.346 146.054 165.681 176.072 165.681Z" fill="#FDA75D"/>
<path d="M182.407 57.3552C209.394 60.5226 230.425 83.4547 230.425 111.328C230.425 139.201 209.394 162.133 182.407 165.301C155.421 162.133 134.389 139.201 134.389 111.328C134.516 83.4547 155.421 60.5226 182.407 57.3552Z" fill="#FFB379"/>
<path d="M212.434 87.3824C212.434 87.3824 212.434 87.2557 212.434 87.3824C215.348 92.3235 217.249 98.0249 218.009 103.853C218.262 105.627 218.262 107.4 218.389 109.301C218.389 114.876 217.249 120.324 215.348 125.391C217.249 120.324 218.262 114.876 218.389 109.428C218.262 101.446 216.109 93.9706 212.434 87.3824Z" fill="#FFB379"/>
<path d="M209.774 135.274C211.801 132.486 213.448 129.446 214.842 126.405C213.575 129.446 211.801 132.486 209.774 135.274Z" fill="#FFB379"/>
<path d="M174.552 6.04296C174.552 3.12894 176.959 0.721682 179.873 0.721682C182.787 0.721682 185.194 3.12894 185.194 6.04296V36.7036C185.194 39.6176 182.787 42.0248 179.873 42.0248C176.959 42.0248 174.552 39.6176 174.552 36.7036V6.04296Z" fill="#FDA75D"/>
<path d="M173.285 6.04297C173.285 3.12894 175.692 0.721684 178.606 0.721684C181.52 0.721684 183.928 3.12894 183.928 6.04297V36.7036C183.928 39.6176 181.52 42.0248 178.606 42.0248C175.692 42.0248 173.285 39.6176 173.285 36.7036V6.04297Z" fill="#FDA75D"/>
<path d="M174.552 185.952C174.552 183.038 176.959 180.631 179.873 180.631C182.787 180.631 185.194 183.038 185.194 185.952V216.613C185.194 219.527 182.787 221.934 179.873 221.934C176.959 221.934 174.552 219.527 174.552 216.613V185.952Z" fill="#FDA75D"/>
<path d="M173.285 185.952C173.285 183.038 175.692 180.631 178.606 180.631C181.52 180.631 183.928 183.038 183.928 185.952V216.613C183.928 219.527 181.52 221.934 178.606 221.934C175.692 221.934 173.285 219.527 173.285 216.613V185.952Z" fill="#FDA75D"/>
<path d="M73.9547 116.016C71.0406 116.016 68.6334 113.609 68.6334 110.695C68.6334 107.78 71.0406 105.373 73.9547 105.373H104.615C107.529 105.373 109.937 107.78 109.937 110.695C109.937 113.609 107.529 116.016 104.615 116.016H73.9547Z" fill="#FDA75D"/>
<path d="M73.9547 117.283C71.0406 117.283 68.6334 114.876 68.6334 111.961C68.6334 109.047 71.0406 106.64 73.9547 106.64H104.615C107.529 106.64 109.937 109.047 109.937 111.961C109.937 114.876 107.529 117.283 104.615 117.283H73.9547Z" fill="#FDA75D"/>
<path d="M253.864 116.016C250.95 116.016 248.543 113.609 248.543 110.695C248.543 107.78 250.95 105.373 253.864 105.373H284.525C287.439 105.373 289.846 107.78 289.846 110.695C289.846 113.609 287.439 116.016 284.525 116.016H253.864Z" fill="#FDA75D"/>
<path d="M253.864 117.283C250.95 117.283 248.543 114.876 248.543 111.961C248.543 109.047 250.95 106.64 253.864 106.64H284.525C287.439 106.64 289.846 109.047 289.846 111.961C289.846 114.876 287.439 117.283 284.525 117.283H253.864Z" fill="#FDA75D"/>
<path d="M108.163 189.12C106.009 191.274 102.715 191.274 100.561 189.12C98.4071 186.966 98.4071 183.672 100.561 181.518L122.226 159.853C124.38 157.699 127.674 157.699 129.828 159.853C131.982 162.007 131.982 165.301 129.828 167.455L108.163 189.12Z" fill="#FDA75D"/>
<path d="M109.05 190.007C106.896 192.161 103.602 192.161 101.448 190.007C99.294 187.853 99.294 184.559 101.448 182.405L123.113 160.74C125.267 158.586 128.561 158.586 130.715 160.74C132.869 162.894 132.869 166.188 130.715 168.342L109.05 190.007Z" fill="#FDA75D"/>
<path d="M235.366 61.7895C233.213 63.9434 229.918 63.9434 227.765 61.7895C225.611 59.6357 225.611 56.3416 227.765 54.1877L249.43 32.5225C251.584 30.3687 254.878 30.3687 257.032 32.5225C259.185 34.6764 259.185 37.9705 257.032 40.1243L235.366 61.7895Z" fill="#FDA75D"/>
<path d="M236.253 62.6764C234.099 64.8303 230.805 64.8303 228.652 62.6764C226.498 60.5226 226.498 57.2285 228.652 55.0746L250.317 33.4094C252.47 31.2556 255.765 31.2556 257.918 33.4094C260.072 35.5633 260.072 38.8574 257.918 41.0112L236.253 62.6764Z" fill="#FDA75D"/>
<path d="M257.032 182.405C259.185 184.559 259.185 187.853 257.032 190.007C254.878 192.161 251.584 192.161 249.43 190.007L227.765 168.342C225.611 166.188 225.611 162.894 227.765 160.74C229.918 158.586 233.213 158.586 235.366 160.74L257.032 182.405Z" fill="#FDA75D"/>
<path d="M257.918 181.518C260.072 183.672 260.072 186.966 257.918 189.12C255.765 191.274 252.47 191.274 250.317 189.12L228.652 167.455C226.498 165.301 226.498 162.007 228.652 159.853C230.805 157.699 234.099 157.699 236.253 159.853L257.918 181.518Z" fill="#FDA75D"/>
<path d="M129.828 55.0746C131.982 57.2285 131.982 60.5226 129.828 62.6764C127.674 64.8303 124.38 64.8303 122.226 62.6764L100.561 41.0112C98.4071 38.8574 98.4071 35.5633 100.561 33.4094C102.715 31.2556 106.009 31.2556 108.163 33.4094L129.828 55.0746Z" fill="#FDA75D"/>
<path d="M130.715 54.1877C132.869 56.3416 132.869 59.6357 130.715 61.7895C128.561 63.9434 125.267 63.9434 123.113 61.7895L101.448 40.1243C99.294 37.9705 99.294 34.6764 101.448 32.5225C103.602 30.3687 106.896 30.3687 109.05 32.5225L130.715 54.1877Z" fill="#FDA75D"/>
<path d="M92.5791 166.441C91.8189 163.274 91.4388 159.98 91.4388 156.685C91.4388 134.26 109.683 116.016 132.109 116.016C148.199 116.016 162.009 125.265 168.597 138.821C169.991 138.695 171.385 138.568 172.778 138.568C195.204 138.568 213.448 156.812 213.448 179.238C213.448 201.663 195.204 219.907 172.778 219.907C156.688 219.907 117.792 219.907 104.235 219.907C88.7782 219.907 76.2352 207.364 76.2352 191.907C76.2352 180.505 82.9502 170.876 92.5791 166.441Z" fill="#62A6C4"/>
<path d="M95.2397 191.907C95.2397 180.631 101.955 170.876 111.71 166.441C110.95 163.274 110.57 159.98 110.57 156.685C110.57 137.554 123.873 121.464 141.737 117.156C153.647 120.07 163.403 128.052 168.724 138.821C170.118 138.695 171.511 138.568 172.905 138.568C195.33 138.568 213.575 156.812 213.575 179.238C213.575 201.663 195.33 219.907 172.905 219.907C162.009 219.907 140.344 219.907 123.366 219.907C107.783 219.907 95.2397 207.364 95.2397 191.907Z" fill="#6FADCD"/>
<path d="M158.715 270.206C158.715 261.844 173.919 235.871 173.919 235.871C173.919 235.871 189.122 261.717 189.122 270.206C189.122 278.695 182.28 285.409 173.919 285.409C165.557 285.409 158.715 278.568 158.715 270.206Z" fill="#9AC6CE"/>
<path d="M180.253 247.4C184.434 255.382 189.122 265.518 189.122 270.206C189.122 276.414 185.448 281.609 180.253 284.016C175.059 281.609 171.385 276.287 171.385 270.206C171.385 265.518 176.072 255.382 180.253 247.4Z" fill="#AED2DC"/>
<path d="M109.683 292.758C109.683 284.396 124.887 258.423 124.887 258.423C124.887 258.423 140.09 284.269 140.09 292.758C140.09 301.12 133.249 307.961 124.887 307.961C116.525 307.961 109.683 301.12 109.683 292.758Z" fill="#9AC6CE"/>
<path d="M131.222 269.952C135.403 277.934 140.09 288.07 140.09 292.758C140.09 298.966 136.416 304.161 131.222 306.568C126.027 304.161 122.353 298.839 122.353 292.758C122.353 288.07 127.041 277.934 131.222 269.952Z" fill="#AED2DC"/>
</svg>
