<svg width="223" height="222" viewBox="0 0 223 222" fill="none" xmlns="http://www.w3.org/2000/svg">
<path d="M108.136 165.133C138.154 165.133 162.489 140.799 162.489 110.781C162.489 80.7622 138.154 56.4276 108.136 56.4276C78.1175 56.4276 53.7828 80.7622 53.7828 110.781C53.7828 140.799 78.1175 165.133 108.136 165.133Z" fill="#FDA75D"/>
<path d="M114.471 56.8077C141.457 59.9751 162.489 82.9072 162.489 110.781C162.489 138.654 141.457 161.586 114.471 164.753C87.4842 161.586 66.4525 138.654 66.4525 110.781C66.5792 82.9072 87.4842 59.9751 114.471 56.8077Z" fill="#FFB379"/>
<path d="M144.498 86.8349C144.498 86.8349 144.498 86.7082 144.498 86.8349C147.412 91.7761 149.312 97.4774 150.072 103.305C150.326 105.079 150.326 106.853 150.452 108.753C150.452 114.328 149.312 119.776 147.412 124.844C149.312 119.776 150.326 114.328 150.452 108.88C150.326 100.898 148.299 93.4231 144.498 86.8349Z" fill="#FFB379"/>
<path d="M141.964 134.726C143.991 131.939 145.638 128.898 147.032 125.857C145.638 128.898 143.991 131.939 141.964 134.726Z" fill="#FFB379"/>
<path d="M106.615 5.49546C106.615 2.58143 109.023 0.174194 111.937 0.174194C114.851 0.174194 117.258 2.58143 117.258 5.49546V36.1561C117.258 39.0701 114.851 41.4773 111.937 41.4773C109.023 41.4773 106.615 39.0701 106.615 36.1561V5.49546Z" fill="#FDA75D"/>
<path d="M105.348 5.49546C105.348 2.58143 107.756 0.174194 110.67 0.174194C113.584 0.174194 115.991 2.58143 115.991 5.49546V36.1561C115.991 39.0701 113.584 41.4773 110.67 41.4773C107.756 41.4773 105.348 39.0701 105.348 36.1561V5.49546Z" fill="#FDA75D"/>
<path d="M106.615 185.405C106.615 182.491 109.023 180.084 111.937 180.084C114.851 180.084 117.258 182.491 117.258 185.405V216.066C117.258 218.98 114.851 221.387 111.937 221.387C109.023 221.387 106.615 218.98 106.615 216.066V185.405Z" fill="#FDA75D"/>
<path d="M105.348 185.405C105.348 182.491 107.756 180.084 110.67 180.084C113.584 180.084 115.991 182.491 115.991 185.405V216.066C115.991 218.98 113.584 221.387 110.67 221.387C107.756 221.387 105.348 218.98 105.348 216.066V185.405Z" fill="#FDA75D"/>
<path d="M6.0181 115.468C3.10407 115.468 0.696838 113.061 0.696838 110.147C0.696838 107.233 3.10407 104.826 6.0181 104.826H36.6787C39.5928 104.826 42 107.233 42 110.147C42 113.061 39.5928 115.468 36.6787 115.468H6.0181Z" fill="#FDA75D"/>
<path d="M6.0181 116.735C3.10407 116.735 0.696838 114.328 0.696838 111.414C0.696838 108.5 3.10407 106.093 6.0181 106.093H36.6787C39.5928 106.093 42 108.5 42 111.414C42 114.328 39.5928 116.735 36.6787 116.735H6.0181Z" fill="#FDA75D"/>
<path d="M186.054 115.468C183.14 115.468 180.733 113.061 180.733 110.147C180.733 107.233 183.14 104.826 186.054 104.826H216.715C219.629 104.826 222.036 107.233 222.036 110.147C222.036 113.061 219.629 115.468 216.715 115.468H186.054Z" fill="#FDA75D"/>
<path d="M186.054 116.735C183.14 116.735 180.733 114.328 180.733 111.414C180.733 108.5 183.14 106.093 186.054 106.093H216.715C219.629 106.093 222.036 108.5 222.036 111.414C222.036 114.328 219.629 116.735 216.715 116.735H186.054Z" fill="#FDA75D"/>
<path d="M40.2262 188.572C38.0724 190.726 34.7783 190.726 32.6244 188.572C30.4706 186.419 30.4706 183.124 32.6244 180.971L54.2896 159.305C56.4434 157.152 59.7375 157.152 61.8914 159.305C64.0452 161.459 64.0452 164.753 61.8914 166.907L40.2262 188.572Z" fill="#FDA75D"/>
<path d="M41.1131 189.459C38.9593 191.613 35.6652 191.613 33.5113 189.459C31.3575 187.305 31.3575 184.011 33.5113 181.857L55.1765 160.192C57.3303 158.038 60.6244 158.038 62.7783 160.192C64.9321 162.346 64.9321 165.64 62.7783 167.794L41.1131 189.459Z" fill="#FDA75D"/>
<path d="M167.557 61.2421C165.403 63.3959 162.109 63.3959 159.955 61.2421C157.801 59.0883 157.801 55.7941 159.955 53.6403L181.62 31.9751C183.774 29.8213 187.068 29.8213 189.222 31.9751C191.376 34.129 191.376 37.4231 189.222 39.5769L167.557 61.2421Z" fill="#FDA75D"/>
<path d="M168.443 62.129C166.29 64.2828 162.995 64.2828 160.842 62.129C158.688 59.9752 158.688 56.681 160.842 54.5272L182.507 32.862C184.661 30.7082 187.955 30.7082 190.109 32.862C192.262 35.0159 192.262 38.31 190.109 40.4638L168.443 62.129Z" fill="#FDA75D"/>
<path d="M189.095 181.857C191.249 184.011 191.249 187.305 189.095 189.459C186.941 191.613 183.647 191.613 181.493 189.459L159.828 167.794C157.674 165.64 157.674 162.346 159.828 160.192C161.982 158.038 165.276 158.038 167.43 160.192L189.095 181.857Z" fill="#FDA75D"/>
<path d="M190.109 180.971C192.262 183.124 192.262 186.419 190.109 188.572C187.955 190.726 184.661 190.726 182.507 188.572L160.842 166.907C158.688 164.753 158.688 161.459 160.842 159.305C162.995 157.152 166.29 157.152 168.443 159.305L190.109 180.971Z" fill="#FDA75D"/>
<path d="M61.8914 54.5272C64.0452 56.681 64.0452 59.9752 61.8914 62.129C59.7375 64.2828 56.4434 64.2828 54.2896 62.129L32.6244 40.4638C30.4706 38.31 30.4706 35.0159 32.6244 32.862C34.7783 30.7082 38.0724 30.7082 40.2262 32.862L61.8914 54.5272Z" fill="#FDA75D"/>
<path d="M62.7783 53.6403C64.9321 55.7941 64.9321 59.0883 62.7783 61.2421C60.6244 63.3959 57.3303 63.3959 55.1765 61.2421L33.5113 39.5769C31.3575 37.4231 31.3575 34.129 33.5113 31.9751C35.6652 29.8213 38.9593 29.8213 41.1131 31.9751L62.7783 53.6403Z" fill="#FDA75D"/>
</svg>
