<svg width="291" height="242" viewBox="0 0 291 242" fill="none" xmlns="http://www.w3.org/2000/svg">
<path d="M17.3439 156.256C16.5837 153.088 16.2036 149.794 16.2036 146.5C16.2036 124.075 34.448 105.83 56.8733 105.83C72.9638 105.83 86.7738 115.079 93.362 128.636C94.7557 128.509 96.1493 128.382 97.543 128.382C119.968 128.382 138.213 146.627 138.213 169.052C138.213 191.477 119.968 209.722 97.543 209.722C81.4525 209.722 42.5565 209.722 29 209.722C13.543 209.722 1.00002 197.179 1.00002 181.722C0.873325 170.446 7.71495 160.69 17.3439 156.256Z" fill="#5199AF"/>
<path d="M20.0045 181.722C20.0045 170.446 26.7195 160.69 36.4751 156.256C35.715 153.088 35.3348 149.794 35.3348 146.5C35.3348 127.369 48.638 111.278 66.5023 106.971C78.4118 109.885 88.1674 117.867 93.4887 128.636C94.8824 128.509 96.276 128.382 97.6697 128.382C120.095 128.382 138.339 146.627 138.339 169.052C138.339 191.477 120.095 209.722 97.6697 209.722C86.7738 209.722 65.1086 209.722 48.1312 209.722C32.4208 209.722 20.0045 197.179 20.0045 181.722Z" fill="#65A5BF"/>
<path d="M176.982 164.998C207 164.998 231.335 140.663 231.335 110.645C231.335 80.6265 207 56.2919 176.982 56.2919C146.964 56.2919 122.629 80.6265 122.629 110.645C122.629 140.663 146.964 164.998 176.982 164.998Z" fill="#FDA75D"/>
<path d="M183.443 56.6719C210.43 59.8394 231.462 82.7715 231.462 110.645C231.462 138.518 210.43 161.45 183.443 164.618C156.457 161.45 135.425 138.518 135.425 110.645C135.425 82.7715 156.33 59.8394 183.443 56.6719Z" fill="#FFB379"/>
<path d="M213.344 86.6991C213.344 86.6991 213.471 86.6991 213.344 86.6991C216.258 91.6403 218.158 97.3416 218.919 103.17C219.172 104.943 219.172 106.717 219.299 108.618C219.299 114.192 218.158 119.64 216.258 124.708C218.158 119.64 219.172 114.192 219.299 108.744C219.172 100.762 217.145 93.2873 213.344 86.6991Z" fill="#FFB379"/>
<path d="M210.81 134.591C212.837 131.803 214.484 128.762 215.751 125.722C214.484 128.762 212.837 131.803 210.81 134.591Z" fill="#FFB379"/>
<path d="M175.462 5.35971C175.462 2.44569 177.869 0.0384521 180.783 0.0384521C183.697 0.0384521 186.104 2.44569 186.104 5.35971V36.0203C186.104 38.9344 183.697 41.3416 180.783 41.3416C177.869 41.3416 175.462 38.9344 175.462 36.0203V5.35971Z" fill="#FDA75D"/>
<path d="M174.195 5.35971C174.195 2.44569 176.602 0.0384521 179.516 0.0384521C182.43 0.0384521 184.837 2.44569 184.837 5.35971V36.0203C184.837 38.9344 182.43 41.3416 179.516 41.3416C176.602 41.3416 174.195 38.9344 174.195 36.0203V5.35971Z" fill="#FDA75D"/>
<path d="M175.462 185.269C175.462 182.355 177.869 179.948 180.783 179.948C183.697 179.948 186.104 182.355 186.104 185.269V215.93C186.104 218.844 183.697 221.251 180.783 221.251C177.869 221.251 175.462 218.844 175.462 215.93V185.269Z" fill="#FDA75D"/>
<path d="M174.195 185.269C174.195 182.355 176.602 179.948 179.516 179.948C182.43 179.948 184.837 182.355 184.837 185.269V215.93C184.837 218.844 182.43 221.251 179.516 221.251C176.602 221.251 174.195 218.844 174.195 215.93V185.269Z" fill="#FDA75D"/>
<path d="M74.991 115.333C72.0769 115.333 69.6697 112.925 69.6697 110.011C69.6697 107.097 72.0769 104.69 74.991 104.69H105.652C108.566 104.69 110.973 107.097 110.973 110.011C110.973 112.925 108.566 115.333 105.652 115.333H74.991Z" fill="#FDA75D"/>
<path d="M74.991 116.599C72.0769 116.599 69.6697 114.192 69.6697 111.278C69.6697 108.364 72.0769 105.957 74.991 105.957H105.652C108.566 105.957 110.973 108.364 110.973 111.278C110.973 114.192 108.566 116.599 105.652 116.599H74.991Z" fill="#FDA75D"/>
<path d="M254.9 115.333C251.986 115.333 249.579 112.925 249.579 110.011C249.579 107.097 251.986 104.69 254.9 104.69H285.561C288.475 104.69 290.882 107.097 290.882 110.011C290.882 112.925 288.475 115.333 285.561 115.333H254.9Z" fill="#FDA75D"/>
<path d="M254.9 116.599C251.986 116.599 249.579 114.192 249.579 111.278C249.579 108.364 251.986 105.957 254.9 105.957H285.561C288.475 105.957 290.882 108.364 290.882 111.278C290.882 114.192 288.475 116.599 285.561 116.599H254.9Z" fill="#FDA75D"/>
<path d="M109.072 188.437C106.919 190.59 103.624 190.59 101.471 188.437C99.3168 186.283 99.3168 182.989 101.471 180.835L123.136 159.17C125.29 157.016 128.584 157.016 130.738 159.17C132.891 161.323 132.891 164.618 130.738 166.771L109.072 188.437Z" fill="#FDA75D"/>
<path d="M110.086 189.324C107.932 191.477 104.638 191.477 102.484 189.324C100.33 187.17 100.33 183.876 102.484 181.722L124.149 160.057C126.303 157.903 129.597 157.903 131.751 160.057C133.905 162.21 133.905 165.505 131.751 167.658L110.086 189.324Z" fill="#FDA75D"/>
<path d="M236.403 61.233C234.249 63.3869 230.955 63.3869 228.801 61.233C226.647 59.0792 226.647 55.785 228.801 53.6312L250.466 31.966C252.62 29.8122 255.914 29.8122 258.068 31.966C260.222 34.1199 260.222 37.414 258.068 39.5678L236.403 61.233Z" fill="#FDA75D"/>
<path d="M237.29 62.1199C235.136 64.2737 231.842 64.2737 229.688 62.1199C227.534 59.966 227.534 56.6719 229.688 54.5181L251.353 32.8529C253.507 30.6991 256.801 30.6991 258.955 32.8529C261.109 35.0068 261.109 38.3009 258.955 40.4547L237.29 62.1199Z" fill="#FDA75D"/>
<path d="M258.068 181.722C260.222 183.876 260.222 187.17 258.068 189.324C255.914 191.477 252.62 191.477 250.466 189.324L228.801 167.658C226.647 165.505 226.647 162.21 228.801 160.057C230.955 157.903 234.249 157.903 236.403 160.057L258.068 181.722Z" fill="#FDA75D"/>
<path d="M258.955 180.835C261.109 182.989 261.109 186.283 258.955 188.437C256.801 190.591 253.507 190.591 251.353 188.437L229.688 166.772C227.534 164.618 227.534 161.324 229.688 159.17C231.842 157.016 235.136 157.016 237.29 159.17L258.955 180.835Z" fill="#FDA75D"/>
<path d="M130.738 54.5181C132.891 56.6719 132.891 59.966 130.738 62.1199C128.584 64.2737 125.29 64.2737 123.136 62.1199L101.471 40.4547C99.3168 38.3009 99.3168 35.0068 101.471 32.8529C103.624 30.6991 106.919 30.6991 109.072 32.8529L130.738 54.5181Z" fill="#FDA75D"/>
<path d="M131.624 53.5045C133.778 55.6584 133.778 58.9525 131.624 61.1064C129.471 63.2602 126.176 63.2602 124.023 61.1064L102.358 39.4412C100.204 37.2873 100.204 33.9932 102.358 31.8394C104.511 29.6855 107.805 29.6855 109.959 31.8394L131.624 53.5045Z" fill="#FDA75D"/>
<path d="M93.6154 188.057C92.8552 184.889 92.4751 181.595 92.4751 178.301C92.4751 155.876 110.719 137.631 133.145 137.631C149.235 137.631 163.045 146.88 169.633 160.437C171.027 160.31 172.421 160.183 173.814 160.183C196.24 160.183 214.484 178.428 214.484 200.853C214.484 223.278 196.24 241.523 173.814 241.523C157.724 241.523 118.828 241.523 105.271 241.523C89.8145 241.523 77.2715 228.98 77.2715 213.523C77.1448 202.247 83.8597 192.491 93.6154 188.057Z" fill="#62A6C4"/>
<path d="M96.1493 213.523C96.1493 202.247 102.864 192.491 112.62 188.057C111.86 184.889 111.48 181.595 111.48 178.301C111.48 159.17 124.783 143.079 142.647 138.771C154.557 141.685 164.312 149.667 169.633 160.437C171.027 160.31 172.421 160.183 173.814 160.183C196.24 160.183 214.484 178.428 214.484 200.853C214.484 223.278 196.24 241.523 173.814 241.523C162.919 241.523 141.253 241.523 124.276 241.523C108.692 241.523 96.1493 228.98 96.1493 213.523Z" fill="#6FADCD"/>
</svg>
